<svg xmlns="http://www.w3.org/2000/svg" viewBox="0 0 841.9 841.9" xmlns:v="https://vecta.io/nano"><linearGradient id="A" gradientUnits="userSpaceOnUse" x1="407.183" y1="118.005" x2="609.413" y2="468.278"><stop offset="0" stop-color="#0afcfe"/><stop offset="1" stop-color="#1144e7"/></linearGradient><path d="M338.9 528.8c-13.9-9.7-25.9-21.4-36.9-34.2-15.2-17.7-25.9-37.9-33.9-59.6-6.1-16.4-8.9-33.5-10.4-50.9-1.2-13.5-1.5-27.1.5-40.3 3.7-24.4 11-47.8 24.2-69 12.5-20.2 29.4-36.5 46-53L451.6 99.2c18.8-18.7 40.9-32.1 65.8-41.3 10.8-4 21.9-6 33-8.3l.2-.2c2.4-.8 5.2.3 7.5-1.2l2.7-.3c10.8-.6 21.6-1.3 32.5-.8 2.5.9 5.1 1 7.7.7 1 0 2 .1 3 .1 8 2 16.3 2.9 24.4 4.9 12.3 3.1 24.2 7.2 35.7 12.5 39.6 18.4 68.6 47.7 88.3 86.4 15.5 30.4 20.3 62.8 17.9 96.6-2 27.3-9.6 52.8-22.4 76.8-7.4 13.8-16.4 26.4-27.4 37.6l-96 96.3c-9.3 9.5-25.6 5-29.1-8.7-3.4-13.3-5.6-26.9-8.1-40.3-1.1-5.7-2.6-11.2-3.3-17-.7-5.9 1.7-10.2 5.6-13.8 21-19.7 40.5-40.9 61.2-61 16.1-15.6 28.5-33.4 34-55.3 9.1-36 1.6-68.2-23.2-96.3-9.3-10.5-19.8-19.3-32.5-25.1-7.2-3.3-14.4-6.6-22.7-8-10.3-1.7-20.5-4.1-31.1-3.6-20.2 1-39 6.7-55.9 18.2-.6.4-1 1.3-1.5 1.9-1.9-.3-3 1.3-4.2 2.2-8.8 6.6-16 14.7-23.8 22.4-.5.5-.6 1.5-.9 2.2-1 .9-2 1.8-3 2.8-3.9 2.5-7.2 5.6-10.1 9.2h.2c-.8-.1-1.3.1-1.1 1.1l-.2-.2c-1.4.5-2.4 1.4-2.9 2.9 0 0 .3.3.2.3-1.3-.6-1.6.5-2.2 1.2-1.4.9-3 1.6-2.8 3.7-2.9 1.1-4.6 3.6-6.3 6l.3.1c-.8-.1-1.1.4-1.1 1.1v-.2c-1.4.6-2.5 1.5-3.1 3l.2.1c-.8-.1-1.2.3-1.1 1.1l.1-.1c-.8-.1-1.2.3-1.1 1.1l.1-.1c-.8-.1-1.1.3-1.1 1.1l.1-.1c-.8-.1-1.2.3-1.1 1.1l.1-.1c-.8-.1-1.1.3-1.1 1.1l.1-.1c-.8-.1-1.2.2-1.1 1.1l-.1-.2c-2.3.5-3.5 2.5-5 4l-19.3 19.8c-20.6 19.8-40.8 40.1-60.9 60.5-8.2 8.3-14.5 18.1-19.2 28.9-8.8 20.3-10.4 41.4-5.3 62.8 8.6 36.4 29.8 63.1 63 80.3 9 5.1 18.9 7.9 28.7 11.1 3.4 1.1 6.2 2.6 8.1 5.8 3.8 6.5 3.3 12.7-.9 18.5-3.9 5.4-8.1 10.4-12.2 15.6-.3.3-.5.7-.8 1h0l-1 1v-.1l-3 4h0c-.8.5-1.5 1-1 2l.1-.1c-4.5 2.8-7.4 7.4-11.1 11h.1c-.7 0-1.2.2-1.1 1.1l.1-.1c-2.2.4-3.9 1.3-5.3 3.1-9.7 4.7-19.7 5.3-29.9 1.7-12.9-4.4-24.7-10.2-36.1-16.9z" fill="url(#A)"/><linearGradient id="B" gradientUnits="userSpaceOnUse" x1="501.291" y1="635.947" x2="131.012" y2="422.166"><stop offset=".132" stop-color="#f93efc"/><stop offset="1" stop-color="#1144e7"/></linearGradient><path d="M268 782.1c-13.8 2.1-27.6.5-41.4-.5-8.6-.6-17-3.8-25.4-6.2-39.1-11-70.5-33.7-95.9-64.9-13.1-16.1-23-34.2-30-53.9-10.3-29.3-13.5-59.3-9.8-90.1 3.3-27.8 12.2-53.5 26.8-77.4 7.5-12.2 16.5-23.2 26.6-33.3l69-69.1c4.4-4.5 9.4-8.2 13.5-13 5.2-6 11.7-7.1 18.9-4.6 6.5 2.3 9.1 8.1 10.1 14.2 3 18.3 7.3 36.3 10.7 54.4 1.3 6.6-.4 12-5.2 16.8l-59.4 59.3c-15.1 15.1-25.9 32.7-30.2 53.9-4.3 21.6-3.2 42.9 5.3 63.2 14.9 35.4 41.8 57.5 78.7 66.7 18.3 4.6 37.2 3.9 55.6-1.7 5.1-1.3 10.2-2.9 14.7-5.7.3-.1.7-.2 1-.3 1.2-.3 2.3-.7 3-1.8 2.7-.8 5-2.4 7.1-4.1 4.5-2.2 8.4-5.4 12.1-8.7 25.1-22.4 47.3-47.6 71.6-70.9 17.4-16.7 34.2-33.8 51.2-50.9 10.1-10.2 20.8-19.9 28-32.7 13.5-24.2 15.8-49.8 9.4-76.4-5.6-23.4-18.3-42.8-36.5-58.5-4.7-4.5-9.9-8.2-15.6-11.3h-.4v.4c.1-.9-.5-1-1.1-1.1h.1c-1.1-1.2-2.4-2-4.1-2.1h.2c-9.7-5.8-20.3-9.4-31.3-12-14-3.2-18.1-14.1-9.6-25.9 3.1-4.3 6.7-8.3 10-12.4 6.9-8.7 14-17.1 22.8-24 9.4-7.4 19.8-9.6 31.3-5.9 2.8.9 5.7 1.7 8.5 2.5 5 2.5 9.9 5.2 15 7.4 9.5 4.1 17.6 10.3 25.6 16.6 26.1 20.6 44.9 47 57 77.7 12.3 31.2 16.1 63.8 11.3 97-4.8 32.9-16.5 63.2-37.5 89.5-6.7 8.4-14.2 15.8-21.7 23.4l-43.7 43.6c-22.1 21.1-43.5 42.9-65.1 64.5-16 16.1-32.7 31.2-52.3 42.9-14 8.4-29.1 14.6-44.8 19.2-10.9 3.2-22.4 4.7-34.1 6.2z" fill="url(#B)"/></svg>